Coordinates
version=1
nRows=13
nColumns=40
inDegrees=yes

Units are S.I. units (second, meters, Newtons, ...)
Angles are in degrees.

endheader
time	pelvis_tilt	pelvis_list	pelvis_rotation	pelvis_tx	pelvis_ty	pelvis_tz	hip_flexion_r	hip_adduction_r	hip_rotation_r	knee_angle_r	knee_angle_r_beta	ankle_angle_r	subtalar_angle_r	mtp_angle_r	hip_flexion_l	hip_adduction_l	hip_rotation_l	knee_angle_l	knee_angle_l_beta	ankle_angle_l	subtalar_angle_l	mtp_angle_l	lumbar_extension	lumbar_bending	lumbar_rotation	arm_flex_r	arm_add_r	arm_rot_r	elbow_flex_r	pro_sup_r	wrist_flex_r	wrist_dev_r	arm_flex_l	arm_add_l	arm_rot_l	elbow_flex_l	pro_sup_l	wrist_flex_l	wrist_dev_l
      0.55000000	     -1.21091626	      2.68500658	      1.66769221	     -0.52787430	      0.94114949	     -1.05916874	     28.41972482	    -10.13821851	    -19.35561168	    -15.54056724	     -0.27123407	      0.32761762	      3.04526366	      0.93245855	     -6.75595612	     -3.22560948	     12.52964740	    -10.84744885	     -0.18932370	      7.91980217	     -0.73459438	    -15.86628892	     -5.07976333	     -2.43499455	     -7.46349175	     -3.34826435	    -11.04378180	    -18.87761519	     16.70325704	     89.95437384	      0.00000000	      0.00000000	     14.05119849	     15.56005002	      2.34508907	     34.00307559	     89.95437384	      0.00000000	      0.00000000
      0.56000000	     -1.36256065	      2.54680181	      2.01596962	     -0.51899825	      0.93979188	     -1.05906170	     28.53686409	     -9.94989842	    -20.14110972	    -14.06157021	     -0.24542070	      0.35502109	      4.64449849	      0.81753947	     -7.10823210	     -2.95310369	     12.51669324	    -11.03116541	     -0.19253016	      8.20332936	     -0.99101927	    -15.95800124	     -4.91851807	     -2.25418758	     -7.78626435	     -3.47890774	    -11.02856896	    -19.20528331	     16.60528139	     89.95437384	      0.00000000	      0.00000000	     14.16653161	     15.67591031	      2.31503796	     34.40336315	     89.95437384	      0.00000000	      0.00000000
      0.57000000	     -1.23263518	      2.35140518	      2.44488316	     -0.50961087	      0.93887821	     -1.05887556	     28.36597672	     -9.88305563	    -21.64559851	    -13.08328171	     -0.22834634	      0.65566477	      7.03378992	      0.10250506	     -7.76757571	     -2.47806325	     12.90920874	    -11.23717748	     -0.19612575	      8.17960068	     -2.25403183	    -16.18684506	     -5.04387540	     -2.00100284	     -8.13299733	     -3.66958211	    -10.98230350	    -19.77343327	     16.60118894	     89.95437384	      0.00000000	      0.00000000	     14.31044574	     15.75191184	      2.30291900	     34.72728616	     89.95437384	      0.00000000	      0.00000000
      0.58000000	     -1.47094971	      2.47409185	      2.70983919	     -0.50049986	      0.93727955	     -1.05870375	     28.83582810	     -9.98619285	    -21.80213043	    -12.63428709	     -0.22050991	      0.76996028	      7.05514472	      0.07070468	     -8.09247298	     -2.50899728	     13.03006877	    -11.30364147	     -0.19728576	      8.35244571	     -2.26092019	    -16.12772150	     -4.76845169	     -2.10527382	     -8.33361413	     -3.90464384	    -11.00451737	    -19.78767478	     16.60149529	     89.95437384	      0.00000000	      0.00000000	     14.41066198	     15.79574333	      2.32861587	     34.90528654	     89.95437384	      0.00000000	      0.00000000
      0.59000000	     -1.65281427	      2.37480639	      3.20823712	     -0.49117397	      0.93594135	     -1.05848727	     28.92110918	     -9.90952165	    -22.06984926	    -11.98298195	     -0.20914249	      0.73546482	      7.53591158	     -0.01445813	     -8.39514790	     -2.21311212	     12.57942745	    -11.54076164	     -0.20142429	      8.44981870	     -2.61663343	    -16.16143668	     -4.56178623	     -1.97706212	     -8.79359151	     -4.00767795	    -10.97503736	    -20.03517586	     16.43027170	     89.95437384	      0.00000000	      0.00000000	     14.32439017	     15.82880036	      2.55089292	     35.20913651	     89.95437384	      0.00000000	      0.00000000
      0.60000000	     -1.79757288	      2.44207902	      3.47816176	     -0.48183750	      0.93455768	     -1.05785861	     29.31253062	    -10.00069109	    -21.86521506	    -12.25657485	     -0.21391759	      0.65195584	      7.32487467	     -0.01956398	     -8.67240015	     -2.08362078	     12.53567903	    -11.94406111	     -0.20846319	      8.35815353	     -2.54961158	    -15.90757678	     -4.39747133	     -2.05519180	     -8.90057389	     -4.29835363	    -10.92840329	    -19.98848300	     16.56877805	     89.95437384	      0.00000000	      0.00000000	     14.34176334	     15.84766421	      2.60280719	     35.42768251	     89.95437384	      0.00000000	      0.00000000
      0.61000000	     -1.60210321	      2.16032975	      4.26827014	     -0.47170047	      0.93391215	     -1.05806627	     29.05231381	    -10.08886168	    -23.09746109	    -12.73733152	     -0.22230837	      0.64592994	      7.02371665	     -0.24983057	     -9.41118366	     -1.44031504	     12.27872540	    -12.13029399	     -0.21171357	      8.48306088	     -3.45141896	    -16.08586009	     -4.53631420	     -1.63841503	     -9.76531860	     -4.17191442	    -10.92249285	    -20.75768541	     16.22388107	     89.95437384	      0.00000000	      0.00000000	     14.11986098	     15.80040141	      3.08700541	     35.55073027	     89.95437384	      0.00000000	      0.00000000
      0.62000000	     -1.75638518	      2.21406753	      4.51760488	     -0.46179292	      0.93265132	     -1.05709918	     29.27751196	    -10.14671056	    -22.70654881	    -13.24424422	     -0.23115567	      0.51482735	      6.75612899	     -0.24907811	     -9.66156087	     -1.24372214	     12.16324050	    -12.60271591	     -0.21995889	      8.34337739	     -3.36861274	    -15.78853112	     -4.30514911	     -1.71325090	     -9.84991558	     -4.52190963	    -10.88010893	    -20.70790533	     16.42760579	     89.95437384	      0.00000000	      0.00000000	     13.94860847	     15.82742476	      3.13740220	     35.69311453	     89.95437384	      0.00000000	      0.00000000
      0.63000000	     -1.49378924	      1.94546008	      5.16293841	     -0.45120329	      0.93218029	     -1.05671515	     29.05601755	    -10.17967839	    -23.31917293	    -14.47625641	     -0.25265834	      0.81111709	      5.42608466	     -0.44950798	    -10.49842387	     -0.56088372	     12.04835618	    -12.74317457	     -0.22241035	      8.27184293	     -4.43275840	    -15.90616266	     -4.46651057	     -1.34342858	    -10.45998633	     -4.42236335	    -10.87632549	    -21.07386664	     16.06857597	     89.95437384	      0.00000000	      0.00000000	     13.74751168	     15.66369121	      3.76262541	     35.56759417	     89.95437384	      0.00000000	      0.00000000
      0.64000000	     -1.35319986	      1.78155195	      5.57358556	     -0.44048421	      0.93153827	     -1.05569061	     28.85735646	    -10.08988320	    -23.10747079	    -15.47457858	     -0.27008235	      1.01845640	      4.35230034	     -0.52263824	    -11.11054282	     -0.01053537	     11.95967890	    -13.14078928	     -0.22935004	      7.98260002	     -4.89558921	    -15.82051949	     -4.46591786	     -1.14352822	    -10.74007705	     -4.53147706	    -10.85392833	    -21.19355312	     15.83662294	     89.95437384	      0.00000000	      0.00000000	     13.49923783	     15.62695795	      3.87537551	     35.43005120	     89.95437384	      0.00000000	      0.00000000
      0.65000000	     -0.94039006	      1.29100646	      5.97301976	     -0.42938499	      0.93140225	     -1.05422726	     28.08491224	     -9.43870559	    -22.70174404	    -16.01967658	     -0.27959610	      0.85424253	      2.39596176	     -0.36890423	    -11.91768521	      1.10803042	     12.67999901	    -13.68047640	     -0.23876936	      7.28246834	     -6.45130977	    -16.35416956	     -4.72555509	     -0.55352820	    -11.01555025	     -4.70122876	    -10.77122532	    -22.03766156	     16.01666893	     89.95437384	      0.00000000	      0.00000000	     13.19092852	     15.47096165	      4.40111912	     35.29507810	     89.95437384	      0.00000000	      0.00000000
      0.66000000	     -0.70406817	      0.99024229	      6.32966212	     -0.41812053	      0.93101743	     -1.05269501	     27.52921964	     -9.01069701	    -22.23557241	    -16.75435705	     -0.29241869	      0.89292805	      0.76140700	      0.00522914	    -12.53818394	      1.92846647	     12.95718710	    -14.25385104	     -0.24877663	      6.73735891	     -7.20891815	    -16.86957741	     -4.75062468	     -0.21082830	    -11.22640714	     -4.85181726	    -10.74911322	    -22.18201767	     15.93573016	     89.95437384	      0.00000000	      0.00000000	     12.81508804	     15.42110995	      4.53219822	     35.05465876	     89.95437384	      0.00000000	      0.00000000
      0.67000000	     -0.39967396	      0.77103827	      6.68953976	     -0.40663079	      0.93090831	     -1.05115248	     26.83214585	     -8.68521737	    -21.72880257	    -17.53234674	     -0.30599718	      0.86592396	     -0.32650562	      0.32365060	    -13.27683230	      2.63976417	     12.98128628	    -14.74471610	     -0.25734384	      6.05389400	     -7.59000596	    -17.03432608	     -4.87376072	      0.06381383	    -11.38296217	     -5.11240628	    -10.70505218	    -22.34619827	     16.04848800	     89.95437384	      0.00000000	      0.00000000	     12.44505547	     15.30200795	      4.78256676	     34.76878616	     89.95437384	      0.00000000	      0.00000000
